<?xml version="1.0" encoding="UTF-8" standalone="no"?><!-- Generator: Gravit.io --><svg xmlns="http://www.w3.org/2000/svg" xmlns:xlink="http://www.w3.org/1999/xlink" style="isolation:isolate" viewBox="0 0 448 512" width="448pt" height="512pt"><defs><clipPath id="_clipPath_V8Kkh3OrFGNZzCbJF8eOayVpLCYBLHWc"><rect width="448" height="512"/></clipPath></defs><g clip-path="url(#_clipPath_V8Kkh3OrFGNZzCbJF8eOayVpLCYBLHWc)"><path d=" M 227.452 324.333 L 217.745 301.284 C 215.614 296.224 211.953 294.28 209.568 296.942 L 200.932 306.58 C 198.548 309.242 198.342 315.502 200.473 320.562 L 210.18 343.61 C 223.252 374.67 241.298 398.556 260.814 410.632 C 274.548 419.198 287.236 436.057 296.418 457.944 L 311.272 493.212 C 313.403 498.272 317.064 500.217 319.448 497.555 L 328.084 487.916 C 330.469 485.254 330.675 478.995 328.544 473.935 L 313.69 438.666 C 303.636 414.76 290.632 395.104 276.278 381.815 C 272.591 378.401 268.815 375.408 264.977 372.871 C 264.349 372.455 263.719 372.052 263.087 371.661 C 249.343 363.092 236.646 346.229 227.452 324.333 L 227.452 324.333 Z " fill="rgb(0,0,0)"/><path d=" M 340.81 284.912 C 327.067 276.343 314.369 259.479 305.175 237.583 L 295.468 214.535 C 293.337 209.475 289.676 207.531 287.292 210.192 L 278.656 219.831 C 276.271 222.493 276.065 228.753 278.196 233.813 L 287.903 256.861 C 300.975 287.921 319.021 311.807 338.537 323.882 C 352.272 332.448 364.959 349.308 374.142 371.194 L 388.995 406.463 C 391.126 411.523 394.787 413.467 397.172 410.806 L 405.808 401.167 C 408.193 398.505 408.398 392.245 406.267 387.185 L 391.414 351.917 C 378.354 320.865 360.317 296.983 340.81 284.912 L 340.81 284.912 Z " fill="rgb(0,0,0)"/><path d=" M 266.314 280.958 L 241.172 221.261 C 239.041 216.201 235.38 214.257 232.995 216.919 L 224.359 226.557 C 221.974 229.219 221.769 235.479 223.9 240.539 L 249.042 300.236 C 262.114 331.295 281.966 357.014 301.482 369.089 C 315.217 377.655 326.097 392.682 335.28 414.569 L 350.134 449.837 C 352.265 454.898 355.925 456.842 358.31 454.18 L 366.946 444.541 C 369.331 441.88 369.536 435.62 367.405 430.56 L 352.552 395.291 C 339.492 364.24 321.456 340.358 301.949 328.286 C 288.205 319.718 275.507 302.854 266.314 280.958 L 266.314 280.958 Z " fill="rgb(0,0,0)"/><path d=" M -3.251 -51.489 L -8.806 -46.063 C 66.377 -11.166 138.765 30.016 202.898 78.861 C 238.252 102.325 246.322 127.314 232.712 152.536 C 195.427 194.735 171.568 229.123 165.723 245.091 C 160.665 270.787 161.175 276.894 169.508 272.557 C 167.909 244.162 189.614 212.658 234.67 178.076 C 307.495 127.62 228.172 51.088 -3.251 -51.489" fill="rgb(0,0,0)" vector-effect="non-scaling-stroke" stroke-width="1" stroke="rgb(0,0,0)" stroke-linejoin="miter" stroke-linecap="square" stroke-miterlimit="3"/><path d=" M 204.012 175.776 C 186.181 188.194 156.206 219.451 114.037 269.518 C 65.228 300.856 38.966 284.35 35.204 219.967 C 35.055 218.371 35.95 218.186 37.795 219.352 C 42.807 253.664 56.076 271.058 77.553 271.503 C 85.898 269.839 93.186 267.77 99.379 265.147 C 106.647 261.383 110.401 260.537 117.849 250.985 C 117.952 250.756 122.69 243.2 122.789 242.968 C 132.084 227.847 142.566 212.369 156.623 195.241 C 166.54 183.579 182.374 175.271 204.077 170.285 L 204.012 175.776 Z " fill="rgb(0,0,0)" vector-effect="non-scaling-stroke" stroke-width="1" stroke="rgb(0,0,0)" stroke-linejoin="miter" stroke-linecap="square" stroke-miterlimit="3"/></g></svg>